<svg width="200" height="200" viewBox="0 0 32 32" fill="none" xmlns="http://www.w3.org/2000/svg">
<path fill-rule="evenodd" clip-rule="evenodd" d="M7.78174 25.8726C9.71886 27.2138 12.0687 28 14.6001 28C20.8653 28 26.0179 23.1846 26.5541 17.057C24.2449 18.7578 21.0571 20.6222 17.4103 22.3228C13.8858 23.9664 10.5196 25.183 7.78174 25.8726Z" fill="#1A1A1A"/>
<path fill-rule="evenodd" clip-rule="evenodd" d="M25.4809 10.9375C24.4767 11.1305 23.3525 11.4143 22.1403 11.7818C21.8741 11.3078 21.5647 10.8613 21.2173 10.4477C19.8607 8.82774 18.0327 7.83282 16.1003 7.49336C14.0196 7.12442 11.9798 7.5371 10.2813 8.51914C8.4503 9.57402 7.15302 11.2014 6.4831 13.0455C5.7585 15.0305 5.81084 17.111 6.4831 18.9542C6.50322 19.01 6.52392 19.0654 6.54522 19.1206C5.48096 19.8298 4.54756 20.5224 3.77334 21.1768C3.02138 19.609 2.6001 17.8532 2.6001 16C2.6001 9.37852 7.97862 4 14.6001 4C19.4131 4 23.5697 6.842 25.4809 10.9375Z" fill="#1A1A1A"/>
<path fill-rule="evenodd" clip-rule="evenodd" d="M17.0117 10.2051C16.5699 10.2051 16.2117 10.5633 16.2117 11.0051C16.2117 11.3465 16.4255 11.6379 16.7265 11.7527C16.7411 12.0158 16.7247 12.277 16.6793 12.5316C16.5817 13.0859 16.3545 13.585 16.0345 14.0035C16.3481 13.8672 16.6599 13.7346 16.9693 13.6057C17.1123 13.2932 17.2123 12.9672 17.2703 12.6361C17.3235 12.3344 17.3413 12.0344 17.3267 11.7406C17.6119 11.6184 17.8117 11.335 17.8117 11.0051C17.8117 10.5633 17.4535 10.2051 17.0117 10.2051ZM11.8165 16.0074C12.115 15.8529 12.4177 15.6992 12.7245 15.5463C12.2505 15.526 11.7972 15.4066 11.3874 15.2066C11.0825 15.0586 10.8099 14.8707 10.5724 14.6523C10.5974 14.575 10.6109 14.4924 10.6109 14.4066C10.6109 13.9648 10.2527 13.6066 9.81086 13.6066C9.36906 13.6066 9.01086 13.9648 9.01086 14.4066C9.01086 14.8484 9.36906 15.2066 9.81086 15.2066C9.9468 15.2066 10.0747 15.1729 10.1868 15.1129C10.4708 15.3705 10.7872 15.5824 11.1245 15.7459C11.3509 15.8561 11.5823 15.943 11.8165 16.0074Z" fill="#1A1A1A"/>
<path fill-rule="evenodd" clip-rule="evenodd" d="M1.08485 25.1072C0.223525 23.2606 6.01766 18.736 14.0264 15.0014C22.0351 11.267 29.2253 9.73671 30.0867 11.5834C30.9477 13.4303 25.1539 17.955 17.1453 21.6894C9.1364 25.424 1.94598 26.9542 1.08485 25.1072Z" fill="#BB2C2C"/>
</svg>
